<svg width="485" height="361" viewBox="0 0 485 361" fill="none" xmlns="http://www.w3.org/2000/svg">
<g clip-path="url(#clip0)">
<path opacity="0.1" d="M48.7838 36.1476C45.7652 37.4004 42.6672 39.0084 41.0084 41.827C39.2515 44.8046 39.4617 48.5021 39.7888 51.9471C42.6392 81.826 50.1482 113.603 37.1815 140.667C30.8873 153.798 20.3597 164.32 11.9862 176.244C3.61266 188.169 -2.70953 203.057 1.17817 217.085C5.92565 234.226 23.6446 243.729 35.5881 256.92C43.4055 265.544 48.8866 276.024 56.1807 285.097C63.4748 294.17 73.4698 302.164 85.1142 302.696C101.861 303.468 115.487 289 131.907 285.649C148.729 282.218 165.667 290.95 179.307 301.402C192.946 311.854 205.353 324.517 221.244 331.042C238.795 338.255 258.579 337.152 277.055 341.485C293.877 345.435 309.363 353.835 326.063 358.313C342.763 362.791 362.337 362.52 375.276 351.081C392.14 336.123 390.813 309.479 401.583 289.692C411.588 271.308 431.171 260.332 444.353 244.079C468.071 214.827 467.296 170.116 447.156 138.302C427.017 106.488 390.537 87.2249 353.235 82.2093C336.413 79.9515 319.091 80.26 302.919 75.1229C259.631 61.3801 233.87 12.1399 189.676 1.89356C161.583 -4.60854 134.262 6.65211 110.333 20.5117C89.5626 32.5437 70.3998 27.1774 48.7838 36.1476Z" fill="#00FF67"/>
<path d="M243.888 348.903C337.308 348.903 413.04 273.143 413.04 179.689C413.04 86.2349 337.308 10.4754 243.888 10.4754C150.468 10.4754 74.7354 86.2349 74.7354 179.689C74.7354 273.143 150.468 348.903 243.888 348.903Z" fill="url(#paint0_linear)"/>
<path d="M243.888 346.098C335.76 346.098 410.237 271.594 410.237 179.689C410.237 87.7839 335.76 13.28 243.888 13.28C152.016 13.28 77.5391 87.7839 77.5391 179.689C77.5391 271.594 152.016 346.098 243.888 346.098Z" fill="#40E282"/>
<path d="M243.888 311.975C316.921 311.975 376.126 252.748 376.126 179.689C376.126 106.63 316.921 47.4032 243.888 47.4032C170.855 47.4032 111.65 106.63 111.65 179.689C111.65 252.748 170.855 311.975 243.888 311.975Z" fill="#DDE1EC"/>
<path opacity="0.3" d="M247.626 70.7752H240.15V187.635H247.626V70.7752Z" fill="#535461"/>
<g opacity="0.1">
<path opacity="0.1" d="M357.435 176.884H251.831V186.233H357.435V176.884Z" fill="black"/>
<path opacity="0.1" d="M177.274 141.908L172.939 150.19L239.386 184.999L243.721 176.717L177.274 141.908Z" fill="black"/>
<path opacity="0.1" d="M243.888 195.582C251.63 195.582 257.906 189.304 257.906 181.559C257.906 173.814 251.63 167.536 243.888 167.536C236.146 167.536 229.87 173.814 229.87 181.559C229.87 189.304 236.146 195.582 243.888 195.582Z" fill="black"/>
</g>
<path d="M357.435 175.015H251.831V184.363H357.435V175.015Z" fill="#535461"/>
<path d="M243.752 174.858L177.305 140.049L172.97 148.331L239.416 183.14L243.752 174.858Z" fill="#535461"/>
<path d="M243.888 193.712C251.63 193.712 257.906 187.434 257.906 179.689C257.906 171.944 251.63 165.666 243.888 165.666C236.146 165.666 229.87 171.944 229.87 179.689C229.87 187.434 236.146 193.712 243.888 193.712Z" fill="#535461"/>
<g opacity="0.1">
<path opacity="0.1" d="M121.921 195.582C121.921 122.521 181.124 63.2962 254.158 63.2962C274.657 63.278 294.879 68.0349 313.222 77.1901C331.564 86.3452 347.524 99.6471 359.837 116.042C337.333 75.1318 293.877 47.4032 243.878 47.4032C170.844 47.4032 111.641 106.628 111.641 179.689C111.598 208.391 120.929 236.321 138.214 259.229C127.495 239.731 121.889 217.834 121.921 195.582Z" fill="black"/>
</g>
<path d="M366.07 82.3771C364.5 80.8673 351.286 90.7911 351.286 90.7911C351.286 90.7911 346.58 91.6511 347.702 94.8812C348.823 98.1112 342.772 116.201 342.772 116.201L340.309 112.756C340.548 108.713 339.436 105.847 338.351 104.062C338.263 103.917 338.174 103.777 338.085 103.646L338.515 103.496C338.351 101.29 334.824 97.9289 332.95 96.2835C332.95 96.0451 332.95 95.8161 332.95 95.573C333.067 92.9366 334.123 90.1553 332.95 87.7667C331.623 85.0415 327.74 83.6719 327.413 80.6803C327.216 78.8947 328.422 77.282 328.955 75.5618C330.226 71.4484 327.586 67.2507 325.062 63.7075C324.208 62.3791 323.168 61.1797 321.974 60.1456C320.836 59.3138 319.587 58.6466 318.263 58.1637C314.567 56.6679 310.787 55.9153 306.974 54.8916C303.315 53.9193 299.942 53.4566 296.227 54.6766C295.345 54.9144 294.54 55.3766 293.891 56.0181C293.007 57.0091 292.891 58.4208 292.311 59.6034C291.377 61.5059 289.363 62.6418 287.582 63.8618C285.802 65.0818 284.017 66.7552 284.008 68.8587C284.008 71.8457 287.419 73.7248 288.559 76.5061C289.624 79.0957 288.559 81.9798 287.966 84.7097C287.718 85.592 287.693 86.5222 287.895 87.4161C288.131 88.0824 288.485 88.7001 288.942 89.2392C289.648 90.174 290.405 91.0435 291.157 91.9316L290.811 92.0672C284.54 91.4221 280.508 99.3873 280.508 99.3873C280.798 99.4481 281.073 99.5182 281.344 99.5976L281.078 99.9436C279.183 102.405 277.635 105.115 276.475 107.998L271.335 114.888C271.335 114.888 270.214 97.6578 272.905 93.7827C275.597 89.9076 270.443 87.5377 270.443 87.5377C270.443 87.5377 259.228 75.0477 257.672 76.1228C256.116 77.1979 261.481 90.7677 266.186 92.9226C266.186 92.9226 266.653 97.2277 265.719 100.028C265.153 101.799 262.135 120.488 262.135 120.488C262.135 120.488 259.448 136.208 271.77 128.434C279.774 123.395 284.947 114.719 287.582 109.269C287.766 108.886 287.939 108.52 288.101 108.171C288.223 108.749 288.306 109.334 288.349 109.923L288.816 127.934C288.934 132.389 287.962 136.805 285.984 140.798L280.494 151.937L281.106 152.124L280.737 152.657C277.12 157.981 270.971 169.952 283.629 176.052L300.451 178.207L299.554 182.512C299.554 182.512 292.61 195.647 290.592 204.692C289.338 210.231 287.38 215.587 284.765 220.627L285.283 220.903C285.176 221.025 285.064 221.151 284.956 221.282C283.936 222.429 283.262 223.843 283.012 225.358L280.732 228.593C280.732 228.593 279.835 241.943 281.629 245.177C282.611 246.944 285.867 248.066 288.638 248.721C292.75 249.698 296.068 245.449 293.886 241.947L293.858 241.901H293.816C293.349 239.727 291.919 232.982 292.386 230.42C292.517 229.691 292.638 228.967 292.699 228.228C292.811 227.258 293.106 226.317 293.568 225.456C293.643 225.311 293.722 225.171 293.802 225.031L294.045 225.134C294.797 225.456 295.54 225.76 296.246 226.026C295.152 227.022 294.377 229.083 295.311 233.323C295.311 233.323 295.4 243.929 296.208 245.598C297.017 247.267 306.063 249.473 307.633 247.753C309.203 246.033 306.624 240.106 306.624 240.106L306.544 240.162C306.026 236.726 305.385 230.575 306.96 228.153C307.596 227.176 308.212 226.167 308.764 225.222L309.105 224.638C312.03 226.096 315.123 227.195 316.815 226.433C316.815 226.433 324.207 209.203 323.759 207.053C323.31 204.903 335.183 180.563 335.183 180.563C335.183 180.563 345.262 169.345 332.945 161.613C329.034 159.15 326.184 157.495 324.114 156.378L322.38 147.309C321.489 142.555 321.648 137.664 322.847 132.978L324.716 125.844L324.871 125.237C324.871 125.237 329.576 115.547 329.352 111.022C329.334 110.67 329.374 110.318 329.469 109.98C329.52 110.195 329.576 110.419 329.637 110.653C330.873 115.356 332.502 119.946 334.506 124.377C338.08 132.445 343.384 131.804 346.29 130.659C346.913 130.418 347.465 130.026 347.898 129.519C348.331 129.011 348.631 128.404 348.772 127.752C349.818 122.731 352.692 108.666 352.874 104.782C353.037 101.744 353.412 98.7218 353.996 95.7366C361.369 91.4221 367.64 83.887 366.07 82.3771Z" fill="url(#paint1_linear)"/>
<path d="M311.217 220.375C311.217 220.375 310.231 222.352 308.881 224.727C308.353 225.662 307.764 226.667 307.161 227.634C305.026 231.051 307.161 241.938 307.161 241.938L302.488 242.579L297.816 240.241L296.961 232.342V226.564L302.287 220.604L304.624 218.024L311.217 220.375Z" fill="#F8BDC5"/>
<g opacity="0.1">
<path opacity="0.1" d="M311.217 220.375C311.217 220.375 310.231 222.352 308.881 224.727C306.818 223.624 304.823 222.397 302.909 221.053L302.498 220.763L302.278 220.604L304.614 218.024L311.217 220.375Z" fill="black"/>
</g>
<path d="M334.062 180.446C334.062 180.446 322.749 204.571 323.179 206.707C323.609 208.843 316.563 225.924 316.563 225.924C314.955 226.681 312.002 225.592 309.217 224.147C307.117 223.028 305.088 221.779 303.143 220.408L302.731 220.118L302.484 219.94L321.053 168.484L304.624 156.429L303.409 155.536L296.063 150.114L318.492 154.171C318.492 154.171 319.273 154.073 323.399 156.382C325.38 157.49 328.132 159.15 331.936 161.646C343.66 169.345 334.062 180.446 334.062 180.446Z" fill="#5E52AD"/>
<g opacity="0.03">
<path opacity="0.03" d="M334.062 180.446C334.062 180.446 322.749 204.571 323.179 206.707C323.609 208.843 316.563 225.924 316.563 225.924C314.955 226.681 312.002 225.592 309.217 224.147C307.117 223.028 305.088 221.779 303.143 220.408L302.731 220.118L302.484 219.94L321.053 168.484L304.624 156.429L303.409 155.536L296.063 150.114L318.492 154.171C318.492 154.171 319.273 154.073 323.399 156.382C325.38 157.49 328.132 159.15 331.936 161.646C343.66 169.345 334.062 180.446 334.062 180.446Z" fill="black"/>
</g>
<path d="M299.694 224.643C299.694 224.643 294.143 223.787 296.068 232.758C296.068 232.758 296.152 243.275 296.923 244.911C297.694 246.547 306.315 248.753 307.806 247.047C309.296 245.341 306.843 239.47 306.843 239.47C306.843 239.47 300.549 244.06 298.839 239.147C297.129 234.235 299.694 224.643 299.694 224.643Z" fill="#5D3E53"/>
<path d="M295.848 222.937C295.243 223.514 294.75 224.198 294.395 224.956C293.954 225.814 293.674 226.746 293.568 227.705C293.512 228.434 293.395 229.158 293.274 229.878C292.741 232.921 294.783 241.938 294.783 241.938L286.671 243.219L283.685 240.017L283.045 232.973C283.842 230.557 284.274 228.036 284.326 225.494C284.326 223.657 285.26 222.016 286.195 220.819C286.828 220.021 287.554 219.3 288.358 218.674C288.358 218.674 297.559 221.441 295.848 222.937Z" fill="#F8BDC5"/>
<g opacity="0.1">
<path opacity="0.1" d="M295.848 222.937C295.243 223.514 294.75 224.198 294.395 224.956C291.073 223.455 287.582 221.562 286.311 220.861L286.213 220.81C286.847 220.011 287.573 219.291 288.377 218.664C288.377 218.664 297.559 221.441 295.848 222.937Z" fill="black"/>
</g>
<path d="M322.104 174.042C322.104 174.042 316.773 184.078 313.352 192.403C311.11 197.872 306.474 210.895 303.54 219.188L303.11 220.413C301.82 224.082 300.96 226.564 300.96 226.564C300.392 226.568 299.826 226.484 299.283 226.316C298.778 226.181 298.213 225.998 297.61 225.774L296.932 225.517C296.26 225.255 295.531 224.951 294.834 224.633C291.442 223.119 287.825 221.146 286.512 220.427L286.017 220.151C288.521 215.131 290.391 209.819 291.582 204.337C293.503 195.372 300.119 182.367 300.119 182.367L300.974 178.095L284.966 175.959C272.905 169.929 278.765 158.042 282.209 152.764C282.796 151.848 283.431 150.964 284.111 150.114L296.918 152.919C296.918 152.919 298.937 153.564 303.423 155.55L305.484 156.485C307.998 157.64 311.091 159.126 314.829 161.033C327.436 167.409 322.104 174.042 322.104 174.042Z" fill="#5E52AD"/>
<path d="M294.704 241.298C295.16 242.068 295.379 242.955 295.332 243.849C295.286 244.743 294.975 245.603 294.441 246.321C293.906 247.039 293.171 247.583 292.328 247.883C291.485 248.184 290.572 248.228 289.704 248.01C287.082 247.36 283.975 246.248 283.041 244.495C281.335 241.293 282.185 228.055 282.185 228.055L284.428 224.746C284.428 224.746 283.255 239.372 286.031 240.639C288.807 241.905 294.676 241.232 294.676 241.232L294.704 241.298Z" fill="#5D3E53"/>
<path d="M296.975 55.6255C296.122 55.8628 295.348 56.3225 294.732 56.9577C293.891 57.9393 293.797 59.3416 293.227 60.5149C292.339 62.3847 290.423 63.5299 288.723 64.7219C287.022 65.9138 285.325 67.592 285.316 69.6767C285.316 72.6403 288.587 74.5007 289.652 77.254C290.666 79.8249 289.652 82.681 289.087 85.3874C288.851 86.2637 288.829 87.1838 289.022 88.0705C289.244 88.7283 289.583 89.341 290.022 89.8796C292.082 92.6842 294.643 95.171 296.021 98.3636C297.068 100.79 297.358 103.468 297.633 106.1C298.031 109.886 298.428 113.742 297.708 117.482C297.638 117.706 297.638 117.945 297.708 118.169C297.831 118.384 298.024 118.549 298.255 118.637C299.615 119.297 301.094 119.676 302.604 119.751C304.114 119.825 305.623 119.593 307.041 119.07C308.459 118.546 309.757 117.74 310.856 116.702C311.955 115.664 312.833 114.414 313.437 113.027C314.371 110.91 314.731 108.353 316.581 106.979C316.797 106.8 317.057 106.682 317.334 106.637C317.77 106.649 318.193 106.791 318.548 107.044C320.95 108.343 323.861 108.381 326.539 107.848C328.156 107.525 329.81 106.95 330.88 105.688C332.987 103.183 331.814 99.4387 331.954 96.1713C332.067 93.5583 333.071 90.8004 331.954 88.4352C330.693 85.7333 326.987 84.3778 326.679 81.4235C326.492 79.6566 327.642 78.0533 328.151 76.3518C329.361 72.271 326.847 68.1108 324.445 64.6003C323.637 63.2908 322.648 62.1026 321.506 61.0712C320.429 60.2505 319.239 59.5893 317.974 59.1079C314.455 57.6261 310.867 56.8782 307.226 55.8685C303.741 54.8729 300.53 54.4101 296.975 55.6255Z" fill="#85555C"/>
<path d="M314.848 116.608H302.465V96.5359C302.833 94.6082 303.048 92.6545 303.11 90.6929C303.11 90.0338 303.11 89.3607 303.11 88.6829C302.993 86.2896 302.498 83.901 301.199 82.4426C297.783 78.6002 312.296 79.2406 312.296 79.2406C312.742 81.005 313.32 82.7332 314.025 84.4105C315.077 87.0277 316.476 89.4914 318.184 91.7353C319.687 93.7319 321.613 95.3713 323.824 96.5359C332.347 100.808 314.848 116.608 314.848 116.608Z" fill="#F8BDC5"/>
<g opacity="0.1">
<path opacity="0.1" d="M314.011 84.4105C312.754 86.0504 311.073 87.3152 309.149 88.0682C307.225 88.8213 305.132 89.0338 303.096 88.6829C302.979 86.2896 302.484 83.901 301.185 82.4426C297.769 78.6002 312.282 79.2406 312.282 79.2406C312.728 81.005 313.306 82.7332 314.011 84.4105Z" fill="black"/>
</g>
<path d="M305.026 88.2155C311.273 88.2155 316.338 83.1488 316.338 76.8987C316.338 70.6486 311.273 65.582 305.026 65.582C298.778 65.582 293.713 70.6486 293.713 76.8987C293.713 83.1488 298.778 88.2155 305.026 88.2155Z" fill="#F8BDC5"/>
<path d="M351.982 96.3256C351.426 99.2868 351.07 102.282 350.916 105.291C350.743 109.138 348.005 123.087 347.005 128.065C346.879 128.703 346.597 129.3 346.185 129.804C345.772 130.307 345.242 130.7 344.641 130.949C341.865 132.085 336.819 132.721 333.426 124.723C331.514 120.322 329.962 115.773 328.786 111.12C328.371 109.556 328.058 107.967 327.852 106.362L335.328 102.304C336.032 102.963 336.628 103.728 337.094 104.571C338.127 106.343 339.188 109.185 338.964 113.191L341.3 116.608C341.3 116.608 347.061 98.6721 345.973 95.4701C344.884 92.2682 349.388 91.4128 349.388 91.4128C349.388 91.4128 361.981 81.5965 363.477 83.0876C364.972 84.5788 359.024 92.0531 351.982 96.3256Z" fill="#F8BDC5"/>
<path d="M290.727 104.866C290.144 106.536 289.473 108.174 288.718 109.774C286.204 115.182 281.279 123.797 273.653 128.78C261.915 136.465 264.476 120.88 264.476 120.88C264.476 120.88 267.35 102.351 267.892 100.598C268.747 97.8214 268.317 93.5536 268.317 93.5536C263.836 91.4174 258.714 77.9692 260.205 76.8987C261.696 75.8283 272.354 88.2155 272.354 88.2155C272.354 88.2155 277.265 90.5527 274.69 94.409C272.116 98.2654 273.195 115.332 273.195 115.332L278.134 108.512C279.233 105.666 280.709 102.981 282.522 100.528C283.456 99.2517 284.111 98.4805 284.111 98.4805L290.727 104.866Z" fill="#F8BDC5"/>
<g opacity="0.1">
<path opacity="0.1" d="M337.099 104.571C335.529 105.151 329.45 107.605 328.777 111.115C328.361 109.552 328.049 107.962 327.842 106.357L335.319 102.299C336.028 102.958 336.629 103.725 337.099 104.571Z" fill="black"/>
</g>
<g opacity="0.1">
<path opacity="0.1" d="M290.727 104.866C290.144 106.536 289.473 108.174 288.718 109.774C288.428 107.661 287.237 102.257 282.522 100.514C283.456 99.2377 284.111 98.4664 284.111 98.4664L290.727 104.866Z" fill="black"/>
</g>
<g opacity="0.1">
<path opacity="0.1" d="M314.848 116.608H302.465V96.5359C302.833 94.6082 303.048 92.6545 303.11 90.6929C305.656 93.1516 305.026 96.9613 305.026 96.9613L311.642 111.919L314.848 98.6955L313.782 96.9893L318.175 91.7633C319.678 93.76 321.604 95.3993 323.815 96.5639C332.347 100.808 314.848 116.608 314.848 116.608Z" fill="black"/>
</g>
<g opacity="0.1">
<path opacity="0.1" d="M323.595 157.593C323.595 157.593 313.894 156.822 305.479 156.457L304.633 156.42C303.437 156.373 302.297 156.336 301.18 156.308C293.012 156.111 283.774 153.255 282.204 152.755C282.793 151.842 283.429 150.961 284.111 150.114L296.918 152.919C296.918 152.919 298.937 153.564 303.423 155.55L296.063 150.114L318.492 154.171C318.492 154.171 319.273 154.073 323.399 156.382L323.595 157.593Z" fill="black"/>
</g>
<path d="M314.848 99.5275L313.782 97.8214L318.52 92.1513C318.52 92.1513 328.291 96.9426 330.852 95.8908C330.852 95.8908 337.043 101.033 337.253 104.006C337.253 104.006 328.291 106.993 328.501 111.485C328.712 115.977 324.249 125.573 324.249 125.573L322.38 133.249C321.23 137.9 321.071 142.742 321.913 147.459L323.618 156.962C323.618 156.962 310.17 155.896 301.189 155.681C292.208 155.466 281.98 152.054 281.98 152.054L287.218 141.027C289.107 137.048 290.032 132.679 289.919 128.275L289.452 110.424C289.452 110.424 289.026 101.458 281.975 99.9622C281.975 99.9622 285.816 92.0625 291.788 92.7029C291.788 92.7029 300.488 89.0709 303.072 91.5249C305.656 93.979 305.021 97.8261 305.021 97.8261L311.638 112.784L314.848 99.5275Z" fill="#ED677B"/>
<g opacity="0.1">
<path opacity="0.1" d="M296.862 74.5662C298.577 74.5662 299.923 72.7478 301.638 72.8413C302.526 72.8881 303.287 73.4537 304.021 73.9632C306.793 75.8835 309.878 77.307 313.137 78.1702C314.404 78.5067 315.745 78.7591 317.016 78.4506C318.287 78.1421 319.478 77.1418 319.623 75.8376C319.659 75.2628 319.583 74.6866 319.399 74.1408C317.96 69.1263 314.705 64.8281 310.268 62.0855C308.493 60.9964 306.325 60.1643 304.357 60.8468C302.582 61.4591 301.437 63.1232 300.152 64.4928C299.184 65.5184 298.084 66.4111 296.881 67.1479C295.947 67.7135 294.545 68.0828 294.007 69.1205C292.993 71.0557 294.587 74.5475 296.862 74.5662Z" fill="black"/>
</g>
<path d="M296.862 74.1408C298.577 74.1408 299.923 72.3225 301.638 72.416C302.526 72.4627 303.287 73.0283 304.021 73.5378C306.793 75.4581 309.878 76.8816 313.137 77.7448C314.404 78.0813 315.745 78.3338 317.016 78.0252C318.287 77.7167 319.478 76.7164 319.623 75.4123C319.659 74.8375 319.583 74.2612 319.399 73.7154C317.96 68.7009 314.705 64.4028 310.268 61.6601C308.493 60.571 306.325 59.739 304.357 60.4214C302.582 61.0338 301.437 62.6979 300.152 64.0675C299.184 65.093 298.084 65.9858 296.881 66.7225C295.947 67.2881 294.545 67.6574 294.007 68.6951C292.993 70.649 294.587 74.1174 296.862 74.1408Z" fill="#85555C"/>
<path opacity="0.05" d="M291.69 122.904C291.69 122.904 302.147 126.747 308.979 123.76L312.395 123.975C312.395 123.975 318.072 127.957 324.076 126.176" fill="black"/>
<path opacity="0.05" d="M341.207 116.5C341.207 116.5 339.501 120.558 340.351 121.839L341.207 116.5Z" fill="black"/>
<path opacity="0.05" d="M273.12 115.22C273.12 115.22 273.975 119.277 273.12 120.558V115.22Z" fill="black"/>
</g>
<defs>
<linearGradient id="paint0_linear" x1="243.888" y1="348.903" x2="243.888" y2="10.4754" gradientUnits="userSpaceOnUse">
<stop stop-color="#808080" stop-opacity="0.25"/>
<stop offset="0.54" stop-color="#808080" stop-opacity="0.12"/>
<stop offset="1" stop-color="#808080" stop-opacity="0.1"/>
</linearGradient>
<linearGradient id="paint1_linear" x1="81773.8" y1="116281" x2="81773.8" y2="34995.3" gradientUnits="userSpaceOnUse">
<stop stop-color="#808080" stop-opacity="0.25"/>
<stop offset="0.54" stop-color="#808080" stop-opacity="0.12"/>
<stop offset="1" stop-color="#808080" stop-opacity="0.1"/>
</linearGradient>
<clipPath id="clip0">
<rect width="485" height="361" fill="white"/>
</clipPath>
</defs>
</svg>
