<svg width="390" height="506" viewBox="0 0 390 506" fill="none" xmlns="http://www.w3.org/2000/svg">
<path d="M137 42.1665L-73.8336 147.583L137 253L347.833 147.583L137 42.1665Z" stroke="#D1FBE2" stroke-width="36" stroke-linecap="round" stroke-linejoin="round"/>
<path d="M-73.8336 358.417L137 463.833L347.833 358.417" stroke="#D1FBE2" stroke-width="50" stroke-linecap="round" stroke-linejoin="round"/>
<path d="M-73.8336 253L137 358.417L347.833 253" stroke="#D1FBE2" stroke-width="53" stroke-linecap="round" stroke-linejoin="round"/>
<path d="M106.064 127.912L100.628 148H93.8241L90.6561 134.968L87.3801 148H80.6121L75.1401 127.912H81.2961L84.1401 142.276L87.5241 127.912H94.0401L97.4601 142.204L100.268 127.912H106.064ZM107.188 137.92C107.188 135.856 107.572 134.044 108.34 132.484C109.132 130.924 110.2 129.724 111.544 128.884C112.888 128.044 114.388 127.624 116.044 127.624C117.46 127.624 118.696 127.912 119.752 128.488C120.832 129.064 121.66 129.82 122.236 130.756V127.912H128.392V148H122.236V145.156C121.636 146.092 120.796 146.848 119.716 147.424C118.66 148 117.424 148.288 116.008 148.288C114.376 148.288 112.888 147.868 111.544 147.028C110.2 146.164 109.132 144.952 108.34 143.392C107.572 141.808 107.188 139.984 107.188 137.92ZM122.236 137.956C122.236 136.42 121.804 135.208 120.94 134.32C120.1 133.432 119.068 132.988 117.844 132.988C116.62 132.988 115.576 133.432 114.712 134.32C113.872 135.184 113.452 136.384 113.452 137.92C113.452 139.456 113.872 140.68 114.712 141.592C115.576 142.48 116.62 142.924 117.844 142.924C119.068 142.924 120.1 142.48 120.94 141.592C121.804 140.704 122.236 139.492 122.236 137.956ZM144.041 142.78V148H140.909C138.677 148 136.937 147.46 135.689 146.38C134.441 145.276 133.817 143.488 133.817 141.016V133.024H131.369V127.912H133.817V123.016H139.973V127.912H144.005V133.024H139.973V141.088C139.973 141.688 140.117 142.12 140.405 142.384C140.693 142.648 141.173 142.78 141.845 142.78H144.041ZM146.246 137.92C146.246 135.856 146.63 134.044 147.398 132.484C148.19 130.924 149.258 129.724 150.602 128.884C151.946 128.044 153.446 127.624 155.102 127.624C156.518 127.624 157.754 127.912 158.81 128.488C159.89 129.064 160.718 129.82 161.294 130.756V127.912H167.45V148H161.294V145.156C160.694 146.092 159.854 146.848 158.774 147.424C157.718 148 156.482 148.288 155.066 148.288C153.434 148.288 151.946 147.868 150.602 147.028C149.258 146.164 148.19 144.952 147.398 143.392C146.63 141.808 146.246 139.984 146.246 137.92ZM161.294 137.956C161.294 136.42 160.862 135.208 159.998 134.32C159.158 133.432 158.126 132.988 156.902 132.988C155.678 132.988 154.634 133.432 153.77 134.32C152.93 135.184 152.51 136.384 152.51 137.92C152.51 139.456 152.93 140.68 153.77 141.592C154.634 142.48 155.678 142.924 156.902 142.924C158.126 142.924 159.158 142.48 159.998 141.592C160.862 140.704 161.294 139.492 161.294 137.956ZM180.076 148.288C178.324 148.288 176.764 147.988 175.396 147.388C174.028 146.788 172.948 145.972 172.156 144.94C171.364 143.884 170.92 142.708 170.824 141.412H176.908C176.98 142.108 177.304 142.672 177.88 143.104C178.456 143.536 179.164 143.752 180.004 143.752C180.772 143.752 181.36 143.608 181.768 143.32C182.2 143.008 182.416 142.612 182.416 142.132C182.416 141.556 182.116 141.136 181.516 140.872C180.916 140.584 179.944 140.272 178.6 139.936C177.16 139.6 175.96 139.252 175 138.892C174.04 138.508 173.212 137.92 172.516 137.128C171.82 136.312 171.472 135.22 171.472 133.852C171.472 132.7 171.784 131.656 172.408 130.72C173.056 129.76 173.992 129.004 175.216 128.452C176.464 127.9 177.94 127.624 179.644 127.624C182.164 127.624 184.144 128.248 185.584 129.496C187.048 130.744 187.888 132.4 188.104 134.464H182.416C182.32 133.768 182.008 133.216 181.48 132.808C180.976 132.4 180.304 132.196 179.464 132.196C178.744 132.196 178.192 132.34 177.808 132.628C177.424 132.892 177.232 133.264 177.232 133.744C177.232 134.32 177.532 134.752 178.132 135.04C178.756 135.328 179.716 135.616 181.012 135.904C182.5 136.288 183.712 136.672 184.648 137.056C185.584 137.416 186.4 138.016 187.096 138.856C187.816 139.672 188.188 140.776 188.212 142.168C188.212 143.344 187.876 144.4 187.204 145.336C186.556 146.248 185.608 146.968 184.36 147.496C183.136 148.024 181.708 148.288 180.076 148.288ZM204.254 148L198.134 139.576V148H191.978V121.36H198.134V136.084L204.218 127.912H211.814L203.462 137.992L211.886 148H204.254Z" fill="#DAF2E4"/>
</svg>
