<svg width="147" height="44" viewBox="0 0 147 44" fill="none" xmlns="http://www.w3.org/2000/svg">
<rect width="50" height="44" rx="13" fill="#40E282"/>
<path d="M24.5 9.41666L12.4167 15.4583L24.5 21.5L36.5834 15.4583L24.5 9.41666Z" stroke="#DAF2E4" stroke-width="2" stroke-linecap="round" stroke-linejoin="round"/>
<path d="M12.4167 27.5417L24.5 33.5833L36.5834 27.5417" stroke="#DAF2E4" stroke-width="2" stroke-linecap="round" stroke-linejoin="round"/>
<path d="M12.4167 21.5L24.5 27.5417L36.5834 21.5" stroke="#DAF2E4" stroke-width="2" stroke-linecap="round" stroke-linejoin="round"/>
<path d="M76.3761 16.608L72.7521 30H68.2161L66.1041 21.312L63.9201 30H59.4081L55.7601 16.608H59.8641L61.7601 26.184L64.0161 16.608H68.3601L70.6401 26.136L72.5121 16.608H76.3761ZM77.1251 23.28C77.1251 21.904 77.3811 20.696 77.8931 19.656C78.4211 18.616 79.1331 17.816 80.0291 17.256C80.9251 16.696 81.9251 16.416 83.0291 16.416C83.9731 16.416 84.7971 16.608 85.5011 16.992C86.2211 17.376 86.7731 17.88 87.1571 18.504V16.608H91.2611V30H87.1571V28.104C86.7571 28.728 86.1971 29.232 85.4771 29.616C84.7731 30 83.9491 30.192 83.0051 30.192C81.9171 30.192 80.9251 29.912 80.0291 29.352C79.1331 28.776 78.4211 27.968 77.8931 26.928C77.3811 25.872 77.1251 24.656 77.1251 23.28ZM87.1571 23.304C87.1571 22.28 86.8691 21.472 86.2931 20.88C85.7331 20.288 85.0451 19.992 84.2291 19.992C83.4131 19.992 82.7171 20.288 82.1411 20.88C81.5811 21.456 81.3011 22.256 81.3011 23.28C81.3011 24.304 81.5811 25.12 82.1411 25.728C82.7171 26.32 83.4131 26.616 84.2291 26.616C85.0451 26.616 85.7331 26.32 86.2931 25.728C86.8691 25.136 87.1571 24.328 87.1571 23.304ZM101.694 26.52V30H99.6062C98.1182 30 96.9582 29.64 96.1262 28.92C95.2942 28.184 94.8782 26.992 94.8782 25.344V20.016H93.2462V16.608H94.8782V13.344H98.9822V16.608H101.67V20.016H98.9822V25.392C98.9822 25.792 99.0782 26.08 99.2702 26.256C99.4622 26.432 99.7822 26.52 100.23 26.52H101.694ZM103.164 23.28C103.164 21.904 103.42 20.696 103.932 19.656C104.46 18.616 105.172 17.816 106.068 17.256C106.964 16.696 107.964 16.416 109.068 16.416C110.012 16.416 110.836 16.608 111.54 16.992C112.26 17.376 112.812 17.88 113.196 18.504V16.608H117.3V30H113.196V28.104C112.796 28.728 112.236 29.232 111.516 29.616C110.812 30 109.988 30.192 109.044 30.192C107.956 30.192 106.964 29.912 106.068 29.352C105.172 28.776 104.46 27.968 103.932 26.928C103.42 25.872 103.164 24.656 103.164 23.28ZM113.196 23.304C113.196 22.28 112.908 21.472 112.332 20.88C111.772 20.288 111.084 19.992 110.268 19.992C109.452 19.992 108.756 20.288 108.18 20.88C107.62 21.456 107.34 22.256 107.34 23.28C107.34 24.304 107.62 25.12 108.18 25.728C108.756 26.32 109.452 26.616 110.268 26.616C111.084 26.616 111.772 26.32 112.332 25.728C112.908 25.136 113.196 24.328 113.196 23.304ZM125.717 30.192C124.549 30.192 123.509 29.992 122.597 29.592C121.685 29.192 120.965 28.648 120.437 27.96C119.909 27.256 119.613 26.472 119.549 25.608H123.605C123.653 26.072 123.869 26.448 124.253 26.736C124.637 27.024 125.109 27.168 125.669 27.168C126.181 27.168 126.573 27.072 126.845 26.88C127.133 26.672 127.277 26.408 127.277 26.088C127.277 25.704 127.077 25.424 126.677 25.248C126.277 25.056 125.629 24.848 124.733 24.624C123.773 24.4 122.973 24.168 122.333 23.928C121.693 23.672 121.141 23.28 120.677 22.752C120.213 22.208 119.981 21.48 119.981 20.568C119.981 19.8 120.189 19.104 120.605 18.48C121.037 17.84 121.661 17.336 122.477 16.968C123.309 16.6 124.293 16.416 125.429 16.416C127.109 16.416 128.429 16.832 129.389 17.664C130.365 18.496 130.925 19.6 131.069 20.976H127.277C127.213 20.512 127.005 20.144 126.653 19.872C126.317 19.6 125.869 19.464 125.309 19.464C124.829 19.464 124.461 19.56 124.205 19.752C123.949 19.928 123.821 20.176 123.821 20.496C123.821 20.88 124.021 21.168 124.421 21.36C124.837 21.552 125.477 21.744 126.341 21.936C127.333 22.192 128.141 22.448 128.765 22.704C129.389 22.944 129.933 23.344 130.397 23.904C130.877 24.448 131.125 25.184 131.141 26.112C131.141 26.896 130.917 27.6 130.469 28.224C130.037 28.832 129.405 29.312 128.573 29.664C127.757 30.016 126.805 30.192 125.717 30.192ZM141.836 30L137.756 24.384V30H133.652V12.24H137.756V22.056L141.812 16.608H146.876L141.308 23.328L146.924 30H141.836Z" fill="#DAF2E4"/>
</svg>
